<svg width="16" height="16" viewBox="0 0 16 16" fill="none" xmlns="http://www.w3.org/2000/svg">
<path d="M7.99843 10.6229C6.7347 10.6229 5.68055 9.72827 5.4303 8.53961H1.2262C1.52336 11.9961 4.42307 14.7081 7.95464 14.7081C11.4862 14.7081 14.389 11.9961 14.6831 8.53961H10.5666C10.3163 9.7314 9.26217 10.6229 7.99843 10.6229Z" fill="white"/>
<path d="M9.49988 14.533C12.3026 13.8761 14.4328 11.4769 14.6831 8.53961H13.0252C12.8594 11.2047 11.4612 13.4632 9.49988 14.533Z" fill="#DFDFDF"/>
<path d="M9.54689 7.99844C9.54377 7.99844 9.54377 7.99844 9.54689 7.99844C9.54377 7.80763 9.50936 7.62621 9.4468 7.45729C9.22783 6.86922 8.66165 6.45319 7.99851 6.45319C7.33536 6.45319 6.76918 6.87235 6.55022 7.45729C6.48766 7.62621 6.45325 7.80763 6.45325 7.99844H6.45638C6.45638 8.18926 6.49078 8.37068 6.55334 8.5396C6.77231 9.12767 7.33849 9.5437 8.00163 9.5437C8.66478 9.5437 9.23096 9.12454 9.44992 8.5396C9.51248 8.37381 9.54689 8.18926 9.54689 7.99844Z" fill="white"/>
<path d="M8.00162 5.37712C9.26536 5.37712 10.3195 6.27175 10.5698 7.46041H14.7739C14.4767 4.00078 11.577 1.28876 8.04229 1.28876C4.50759 1.28876 1.61101 4.00078 1.31384 7.45728H5.43349C5.68373 6.26862 6.73789 5.37712 8.00162 5.37712Z" fill="#FF1C1C"/>
<path d="M13.0253 7.45731H14.7707C14.5142 4.47002 12.3121 2.03639 9.43738 1.43268C11.4331 2.48683 12.8563 4.76718 13.0253 7.45731Z" fill="#DF1818"/>
<path d="M8.04223 1.28876C11.5769 1.28876 14.4766 4.00078 14.7707 7.45728H10.5666C10.3163 6.26862 9.26217 5.374 7.99844 5.374C6.7347 5.374 5.68055 6.26862 5.4303 7.45728H1.31378C1.61095 4.00078 4.51065 1.28876 8.04223 1.28876ZM9.44672 7.45728C9.50929 7.6262 9.5437 7.80762 9.5437 7.99844H9.54682C9.54682 8.18925 9.51241 8.37067 9.44985 8.53959C9.23089 9.12766 8.66471 9.5437 8.00156 9.5437C7.33842 9.5437 6.77224 9.12454 6.55327 8.53959C6.49071 8.37067 6.4563 8.18925 6.4563 7.99844H6.45318C6.45318 7.80762 6.48759 7.6262 6.55015 7.45728C6.76911 6.86921 7.33529 6.45318 7.99844 6.45318C8.66158 6.45318 9.22776 6.87234 9.44672 7.45728ZM7.95464 14.7112C4.41994 14.7112 1.52023 11.9992 1.2262 8.54272H5.4303C5.68055 9.73138 6.7347 10.626 7.99844 10.626C9.26217 10.626 10.3163 9.73138 10.5666 8.54272H14.6862C14.3891 11.9961 11.4893 14.7112 7.95464 14.7112ZM7.99844 0C3.58162 0 0 3.58162 0 7.99844C0 12.4152 3.58162 15.9969 7.99844 15.9969C12.4152 15.9969 16 12.4184 16 7.99844C16 3.57849 12.4184 0 7.99844 0Z" fill="black"/>
</svg>
