<svg width="24" height="24" viewBox="0 0 24 24" fill="none" xmlns="http://www.w3.org/2000/svg">
<path d="M10.2664 24H10.5164H10.7664C10.7664 21.2308 13.1681 18.9708 16.1891 18.9708V18.7208V18.4708C13.1681 18.4708 10.7664 16.2108 10.7664 13.4416H10.5164H10.2664C10.2664 16.2108 7.86462 18.4708 4.84364 18.4708V18.7208V18.9708C7.86462 18.9708 10.2664 21.2308 10.2664 24ZM11.3455 5.02919C8.32448 5.02919 5.92273 2.76916 5.92273 0H5.67273H5.42273C5.42273 2.76916 3.02098 5.02919 0 5.02919V5.27919V5.52919C3.02098 5.52919 5.42273 7.78921 5.42273 10.5584H5.67273H5.92273C5.92273 7.78921 8.32448 5.52919 11.3455 5.52919V5.27919V5.02919ZM24 8.72462C20.979 8.72462 18.5773 6.46459 18.5773 3.69543H18.3273H18.0773C18.0773 6.46459 15.6755 8.72462 12.6545 8.72462V8.97462V9.22462C15.6755 9.22462 18.0773 11.4846 18.0773 14.2538L18.5772 14.2575C18.6186 11.4834 21.0249 9.22462 24 9.22462V8.97462V8.72462Z" fill="#2E3057" stroke="white" stroke-width="0.5"/>
</svg>
